<svg width="12" height="12" viewBox="0 0 12 12" fill="none" xmlns="http://www.w3.org/2000/svg">
<path d="M11.7072 0.292786C11.5197 0.105315 11.2654 0 11.0002 0C10.7351 0 10.4808 0.105315 10.2932 0.292786L5.88623 4.69979C6.45765 5.0591 6.94091 5.54237 7.30023 6.11379L8.70723 4.70679L10.0002 5.99979L12.0002 3.99979L10.7072 2.70679L11.7072 1.70679C11.8947 1.51926 12 1.26495 12 0.999786C12 0.734622 11.8947 0.480314 11.7072 0.292786Z" fill="#B1AD9C"/>
<path d="M3.5 12C5.433 12 7 10.433 7 8.5C7 6.567 5.433 5 3.5 5C1.567 5 0 6.567 0 8.5C0 10.433 1.567 12 3.5 12Z" fill="#B1AD9C"/>
</svg>
