<svg width="16" height="16" viewBox="0 0 16 16" fill="none" xmlns="http://www.w3.org/2000/svg">
<g clip-path="url(#clip0)">
<path d="M14.5763 5.66901L13.1523 7.09301C13.4303 7.44001 13.6583 7.75701 13.8213 8.00001C13.0613 9.13001 10.9713 11.82 8.26031 11.985L6.44531 13.8C6.94131 13.924 7.45931 14 8.00231 14C12.7093 14 15.7463 8.71601 15.8733 8.49201C16.0443 8.18801 16.0453 7.81601 15.8743 7.51201C15.8273 7.42701 15.3743 6.63101 14.5763 5.66901Z" fill="#858580"/>
<path d="M0.293375 15.707C0.488375 15.902 0.744375 16 1.00038 16C1.25638 16 1.51238 15.902 1.70738 15.707L15.7074 1.70701C16.0984 1.31601 16.0984 0.684006 15.7074 0.293006C15.3164 -0.0979941 14.6844 -0.0979941 14.2934 0.293006L11.5484 3.03801C10.5154 2.43101 9.33138 2.00001 8.00037 2.00001C3.24537 2.00001 0.251375 7.28901 0.126375 7.51401C-0.0426249 7.81701 -0.0416249 8.18601 0.128375 8.48901C0.198375 8.61401 1.17238 10.291 2.82138 11.765L0.292375 14.294C-0.0976249 14.684 -0.0976249 15.316 0.293375 15.707ZM2.18138 7.99901C2.95837 6.83501 5.14637 4.00001 8.00037 4.00001C8.74237 4.00001 9.43738 4.20101 10.0784 4.50801L8.51237 6.07401C8.34838 6.02901 8.17838 6.00001 8.00037 6.00001C6.89537 6.00001 6.00038 6.89501 6.00038 8.00001C6.00038 8.17801 6.02938 8.34801 6.07438 8.51201L4.24038 10.346C3.28538 9.51 2.55938 8.56201 2.18138 7.99901Z" fill="#858580"/>
</g>
<defs>
<clipPath id="clip0">
<rect width="16" height="16" fill="white"/>
</clipPath>
</defs>
</svg>
