<svg width="150" height="27" viewBox="0 0 150 27" fill="none" xmlns="http://www.w3.org/2000/svg">
<g clip-path="url(#clip0)">
<path fill-rule="evenodd" clip-rule="evenodd" d="M87.2542 4.00657L78.0895 26.7105H76.4038L87.2542 0L98.0808 26.7105H96.3951L87.2542 4.00657ZM50.9368 0H63.3097V1.59372H52.587V25.1167H63.3097V26.7105H50.9368V0ZM27.8056 26.0011C26.4819 26.4265 24.7319 26.663 22.5555 26.7105H17.8723V0H22.5555C24.6567 0 26.3721 0.224566 27.7017 0.673697C29.3846 1.20246 30.9169 2.12531 32.1713 3.36552C34.9195 5.9871 36.2936 9.32887 36.2936 13.3908C36.2936 17.2648 34.965 20.5235 32.3078 23.1669C31.0546 24.4571 29.5109 25.4289 27.8056 26.0011ZM30.8981 4.49923C28.8602 2.60773 26.0645 1.63923 22.511 1.59372H19.5224V25.1167H22.511C26.201 25.1167 29.0996 24.0424 31.2067 21.8937C33.4524 19.5788 34.5989 16.7445 34.6464 13.3908C34.6464 9.82351 33.397 6.85964 30.8981 4.49923ZM0 0H1.65011V26.7105H0V0Z" fill="white"/>
<path d="M100.387 4.89969V4.87891C100.382 4.49509 100.454 4.11418 100.598 3.7585C100.743 3.40282 100.957 3.07952 101.227 2.80755C101.498 2.53557 101.821 2.32039 102.176 2.17461C102.531 2.02883 102.912 1.95538 103.295 1.95857C103.716 1.94263 104.135 2.02096 104.522 2.18785C104.909 2.35473 105.253 2.60595 105.53 2.92311L104.726 3.77785C104.552 3.56191 104.332 3.38735 104.082 3.26675C103.832 3.14614 103.558 3.0825 103.281 3.08041C102.349 3.08041 101.66 3.88469 101.66 4.8611V4.88188C101.648 5.10992 101.682 5.33803 101.761 5.55247C101.839 5.76691 101.96 5.96324 102.117 6.12962C102.273 6.29601 102.462 6.429 102.671 6.5206C102.88 6.61219 103.106 6.66049 103.334 6.66258C103.61 6.65742 103.882 6.59363 104.132 6.47544C104.382 6.35725 104.603 6.18735 104.782 5.97701L105.554 6.73677C105.28 7.07628 104.931 7.3476 104.535 7.52939C104.138 7.71118 103.705 7.79848 103.269 7.78442C102.889 7.78839 102.512 7.71647 102.161 7.57287C101.809 7.42927 101.49 7.21689 101.221 6.94818C100.953 6.67947 100.741 6.35985 100.597 6.00808C100.454 5.65631 100.383 5.27948 100.387 4.89969Z" fill="white"/>
<path d="M105.53 4.90002V4.87925C105.527 4.08937 105.838 3.33076 106.395 2.77029C106.951 2.20982 107.708 1.8934 108.498 1.89064C109.288 1.88789 110.046 2.19902 110.607 2.7556C111.167 3.31217 111.483 4.0686 111.486 4.85847V4.87925C111.485 5.26808 111.406 5.6527 111.254 6.01055C111.102 6.36841 110.88 6.69229 110.601 6.9632C110.322 7.23411 109.991 7.44659 109.629 7.58817C109.267 7.72976 108.88 7.7976 108.492 7.78772C108.106 7.79763 107.723 7.73025 107.364 7.58957C107.005 7.44889 106.678 7.23776 106.402 6.96862C106.126 6.69948 105.906 6.37778 105.756 6.02251C105.607 5.66723 105.53 5.28556 105.53 4.90002ZM110.204 4.90002V4.87925C110.214 4.64764 110.177 4.41639 110.096 4.19934C110.014 3.98229 109.89 3.78389 109.73 3.616C109.57 3.4481 109.378 3.31417 109.165 3.2222C108.953 3.13024 108.724 3.08212 108.492 3.08074C107.465 3.08074 106.809 3.88502 106.809 4.86144V4.88221C106.801 5.11172 106.839 5.34049 106.921 5.55505C107.003 5.76962 107.127 5.96564 107.285 6.13158C107.444 6.29751 107.635 6.43001 107.845 6.52126C108.056 6.61251 108.283 6.66067 108.512 6.66291C108.741 6.66567 108.969 6.62141 109.18 6.53286C109.391 6.44432 109.582 6.31337 109.74 6.14812C109.899 5.98288 110.022 5.78685 110.102 5.57217C110.181 5.35748 110.216 5.12872 110.204 4.90002Z" fill="white"/>
<path d="M112.047 2.0774H113.326V2.92324C113.504 2.62977 113.754 2.38688 114.052 2.21795C114.35 2.04902 114.687 1.95973 115.03 1.95869C115.374 1.94383 115.715 2.02899 116.011 2.20387C116.308 2.37874 116.547 2.63583 116.701 2.94401C116.909 2.63709 117.191 2.38652 117.519 2.2146C117.848 2.04269 118.214 1.95477 118.585 1.95869C119.802 1.95869 120.541 2.73033 120.541 4.09553V7.65692H119.262V4.48728C119.262 3.59693 118.85 3.12208 118.131 3.12208C117.413 3.12208 116.944 3.6088 116.944 4.50806V7.66286H115.662V4.47838C115.662 3.6088 115.241 3.12208 114.531 3.12208C113.822 3.12208 113.344 3.65332 113.344 4.50806V7.66286H112.065L112.047 2.0774Z" fill="white"/>
<path d="M121.357 2.07753H122.637V2.92336C122.816 2.62877 123.067 2.38526 123.368 2.21631C123.668 2.04736 124.007 1.95868 124.352 1.95882C124.696 1.94337 125.038 2.02826 125.335 2.20316C125.632 2.37807 125.872 2.63548 126.026 2.94414C126.233 2.63708 126.514 2.38633 126.842 2.21437C127.171 2.04241 127.537 1.9546 127.907 1.95882C129.124 1.95882 129.866 2.73046 129.866 4.09566V7.65705H128.584V4.48741C128.584 3.59706 128.172 3.12221 127.453 3.12221C126.735 3.12221 126.266 3.60893 126.266 4.50818V7.66299H124.987V4.47851C124.987 3.60893 124.563 3.12221 123.853 3.12221C123.144 3.12221 122.666 3.65345 122.666 4.50818V7.66299H121.387L121.357 2.07753Z" fill="white"/>
<path d="M130.362 4.8912V4.86746C130.362 3.27076 131.496 1.95898 133.092 1.95898C134.873 1.95898 135.764 3.35683 135.764 4.96539C135.764 5.08114 135.764 5.19689 135.743 5.3245H131.641C131.678 5.72222 131.866 6.09066 132.166 6.354C132.467 6.61733 132.857 6.75553 133.256 6.74016C133.541 6.74191 133.823 6.68362 134.083 6.56907C134.344 6.45453 134.578 6.2863 134.769 6.07536L135.52 6.74016C135.246 7.07949 134.897 7.35069 134.501 7.53246C134.104 7.71423 133.671 7.80163 133.235 7.7878C132.852 7.79993 132.471 7.73311 132.116 7.59152C131.76 7.44993 131.438 7.23661 131.168 6.96484C130.898 6.69307 130.688 6.3687 130.549 6.01193C130.41 5.65516 130.347 5.27366 130.362 4.8912ZM134.499 4.47867C134.413 3.65361 133.926 2.99476 133.081 2.99476C132.297 2.99476 131.748 3.58832 131.632 4.47867H134.499Z" fill="white"/>
<path d="M136.318 2.07749H137.6V3.33882C137.948 2.50189 138.595 1.9291 139.577 1.97362V3.32398H139.503C138.381 3.32398 137.6 4.05406 137.6 5.53501V7.66294H136.318V2.07749Z" fill="white"/>
<path d="M139.449 4.89973V4.87896C139.445 4.49489 139.517 4.11373 139.661 3.75785C139.806 3.40197 140.02 3.07854 140.291 2.80652C140.562 2.53451 140.885 2.31939 141.24 2.17379C141.596 2.02818 141.977 1.95503 142.361 1.95861C142.781 1.94248 143.2 2.02075 143.586 2.18766C143.972 2.35457 144.316 2.60589 144.593 2.92316L143.788 3.77789C143.615 3.56273 143.396 3.38863 143.147 3.26805C142.898 3.14748 142.626 3.08342 142.349 3.08045C141.42 3.08045 140.732 3.88474 140.732 4.86115V4.88193C140.719 5.10982 140.753 5.33786 140.831 5.55229C140.909 5.76672 141.03 5.96308 141.186 6.12951C141.342 6.29594 141.531 6.42899 141.74 6.52062C141.949 6.61225 142.174 6.66056 142.402 6.66262C142.679 6.65746 142.951 6.59368 143.2 6.47549C143.45 6.3573 143.672 6.1874 143.851 5.97705L144.625 6.73682C144.242 7.19566 143.727 7.52601 143.149 7.68345C142.572 7.8409 141.961 7.81788 141.397 7.61751C140.834 7.41714 140.345 7.04901 139.997 6.56262C139.648 6.07623 139.457 5.4949 139.449 4.89677V4.89973Z" fill="white"/>
<path d="M144.593 4.8912V4.86746C144.593 3.27076 145.726 1.95898 147.323 1.95898C149.104 1.95898 149.994 3.35683 149.994 4.96539C149.994 5.08114 149.994 5.19689 149.973 5.3245H145.872C145.909 5.72116 146.096 6.08871 146.395 6.3519C146.694 6.61508 147.082 6.75398 147.48 6.74016C147.765 6.74191 148.047 6.68362 148.308 6.56907C148.569 6.45453 148.802 6.2863 148.994 6.07536L149.745 6.74016C149.471 7.07949 149.122 7.35069 148.725 7.53246C148.329 7.71423 147.895 7.80163 147.459 7.7878C147.077 7.79909 146.697 7.73167 146.342 7.58971C145.987 7.44775 145.665 7.23429 145.396 6.96261C145.128 6.69093 144.917 6.36684 144.779 6.01049C144.641 5.65414 144.577 5.27314 144.593 4.8912ZM148.73 4.47867C148.644 3.65361 148.157 2.99476 147.311 2.99476C146.528 2.99476 145.979 3.58832 145.863 4.47867H148.73Z" fill="white"/>
</g>
<defs>
<clipPath id="clip0">
<rect width="150" height="26.7105" fill="white"/>
</clipPath>
</defs>
</svg>
