<svg width="16" height="16" viewBox="0 0 16 16" fill="none" xmlns="http://www.w3.org/2000/svg">
<path d="M10.4481 6.27577C10.4083 6.19621 10.3481 6.1287 10.2736 6.08018C10.199 6.03167 10.1129 6.00391 10.0241 5.99977C9.93502 5.99212 9.84563 6.01008 9.76643 6.05154C9.68724 6.09299 9.62154 6.15622 9.57708 6.23377L7.41008 9.69977L5.85508 8.14577C5.80196 8.09445 5.7386 8.05492 5.66916 8.02977C5.59972 8.00461 5.52574 7.99439 5.45208 7.99977C5.37836 8.00711 5.30718 8.03075 5.24371 8.06897C5.18024 8.10719 5.12606 8.15904 5.08508 8.22077L3.08508 11.2208C3.03444 11.2961 3.00525 11.3838 3.00064 11.4744C2.99604 11.5651 3.0162 11.6552 3.05895 11.7353C3.1017 11.8154 3.16544 11.8823 3.24333 11.9289C3.32122 11.9755 3.41032 12 3.50108 11.9998H12.5011C12.5863 11.9998 12.6702 11.978 12.7447 11.9364C12.8191 11.8949 12.8817 11.835 12.9265 11.7624C12.9713 11.6899 12.9968 11.6071 13.0006 11.5219C13.0043 11.4367 12.9863 11.352 12.9481 11.2758L10.4481 6.27577Z" fill="#B2B2B0"/>
<path d="M14 0H2C1.46957 0 0.960859 0.210714 0.585786 0.585786C0.210714 0.960859 0 1.46957 0 2L0 14C0 14.5304 0.210714 15.0391 0.585786 15.4142C0.960859 15.7893 1.46957 16 2 16H14C14.5304 16 15.0391 15.7893 15.4142 15.4142C15.7893 15.0391 16 14.5304 16 14V2C16 1.46957 15.7893 0.960859 15.4142 0.585786C15.0391 0.210714 14.5304 0 14 0V0ZM2 14V2H14V14H2Z" fill="#B2B2B0"/>
<path d="M5 6C5.55228 6 6 5.55228 6 5C6 4.44772 5.55228 4 5 4C4.44772 4 4 4.44772 4 5C4 5.55228 4.44772 6 5 6Z" fill="#B2B2B0"/>
</svg>
