<svg width="12" height="12" viewBox="0 0 12 12" fill="none" xmlns="http://www.w3.org/2000/svg">
<g clip-path="url(#clip0)">
<path d="M11.5 0C11.3674 0 11.2402 0.0526784 11.1464 0.146447C11.0527 0.240215 11 0.367392 11 0.5V11.5C11 11.6326 11.0527 11.7598 11.1464 11.8536C11.2402 11.9473 11.3674 12 11.5 12C11.6326 12 11.7598 11.9473 11.8536 11.8536C11.9473 11.7598 12 11.6326 12 11.5V0.5C12 0.367392 11.9473 0.240215 11.8536 0.146447C11.7598 0.0526784 11.6326 0 11.5 0V0Z" fill="#212121"/>
<path d="M1.783 0.0877976C1.70793 0.0362567 1.62021 0.00619594 1.5293 0.000859458C1.4384 -0.00447703 1.34776 0.0151134 1.26717 0.0575165C1.18659 0.0999196 1.11911 0.163525 1.07203 0.241469C1.02494 0.319413 1.00004 0.408736 1 0.499798V11.4998C1.00017 11.5909 1.02522 11.6802 1.07245 11.7581C1.11968 11.836 1.1873 11.8995 1.268 11.9418C1.33936 11.98 1.41906 11.9999 1.5 11.9998C1.60106 11.9997 1.69973 11.9691 1.783 11.9118L9.783 6.4118C9.84983 6.36585 9.90447 6.30433 9.94222 6.23256C9.97998 6.16078 9.99971 6.0809 9.99971 5.9998C9.99971 5.9187 9.97998 5.83882 9.94222 5.76704C9.90447 5.69526 9.84983 5.63375 9.783 5.5878L1.783 0.0877976Z" fill="#212121"/>
</g>
<defs>
<clipPath id="clip0">
<rect width="12" height="12" fill="white"/>
</clipPath>
</defs>
</svg>
