<svg width="12" height="12" viewBox="0 0 12 12" fill="none" xmlns="http://www.w3.org/2000/svg">
<g clip-path="url(#clip0)">
<path d="M0.5 0C0.367392 0 0.240215 0.0526784 0.146447 0.146447C0.0526784 0.240215 0 0.367392 0 0.5L0 11.5C0 11.6326 0.0526784 11.7598 0.146447 11.8536C0.240215 11.9473 0.367392 12 0.5 12C0.632608 12 0.759785 11.9473 0.853553 11.8536C0.947322 11.7598 1 11.6326 1 11.5V0.5C1 0.367392 0.947322 0.240215 0.853553 0.146447C0.759785 0.0526784 0.632608 0 0.5 0V0Z" fill="#212121"/>
<path d="M10.7317 0.0578808C10.6512 0.0155982 10.5608 -0.00395128 10.47 0.0013346C10.3793 0.00662048 10.2917 0.0365418 10.2167 0.0878808L2.21671 5.58788C2.14988 5.63383 2.09523 5.69535 2.05748 5.76712C2.01973 5.8389 2 5.91878 2 5.99988C2 6.08098 2.01973 6.16086 2.05748 6.23264C2.09523 6.30442 2.14988 6.36593 2.21671 6.41188L10.2167 11.9119C10.3 11.9691 10.3986 11.9998 10.4997 11.9999C10.5806 12 10.6603 11.9801 10.7317 11.9419C10.8124 11.8996 10.88 11.8361 10.9273 11.7582C10.9745 11.6803 10.9995 11.591 10.9997 11.4999V0.499881C10.9995 0.408782 10.9745 0.31946 10.9273 0.241562C10.88 0.163664 10.8124 0.10015 10.7317 0.0578808Z" fill="#212121"/>
</g>
<defs>
<clipPath id="clip0">
<rect width="12" height="12" fill="white"/>
</clipPath>
</defs>
</svg>
