<svg width="16" height="16" viewBox="0 0 16 16" fill="none" xmlns="http://www.w3.org/2000/svg">
<g clip-path="url(#clip0)">
<path d="M6 0H1C0.734784 0 0.48043 0.105357 0.292893 0.292893C0.105357 0.48043 0 0.734784 0 1L0 6C0 6.26522 0.105357 6.51957 0.292893 6.70711C0.48043 6.89464 0.734784 7 1 7H6C6.26522 7 6.51957 6.89464 6.70711 6.70711C6.89464 6.51957 7 6.26522 7 6V1C7 0.734784 6.89464 0.48043 6.70711 0.292893C6.51957 0.105357 6.26522 0 6 0V0ZM5 5H2V2H5V5Z" fill="#B2B2B0"/>
<path d="M15 9H10C9.73478 9 9.48043 9.10536 9.29289 9.29289C9.10536 9.48043 9 9.73478 9 10V15C9 15.2652 9.10536 15.5196 9.29289 15.7071C9.48043 15.8946 9.73478 16 10 16H15C15.2652 16 15.5196 15.8946 15.7071 15.7071C15.8946 15.5196 16 15.2652 16 15V10C16 9.73478 15.8946 9.48043 15.7071 9.29289C15.5196 9.10536 15.2652 9 15 9ZM14 14H11V11H14V14Z" fill="#B2B2B0"/>
<path d="M6 9H1C0.734784 9 0.48043 9.10536 0.292893 9.29289C0.105357 9.48043 0 9.73478 0 10L0 15C0 15.2652 0.105357 15.5196 0.292893 15.7071C0.48043 15.8946 0.734784 16 1 16H6C6.26522 16 6.51957 15.8946 6.70711 15.7071C6.89464 15.5196 7 15.2652 7 15V10C7 9.73478 6.89464 9.48043 6.70711 9.29289C6.51957 9.10536 6.26522 9 6 9ZM5 14H2V11H5V14Z" fill="#B2B2B0"/>
<path d="M10.9999 6.99992H11.0549C11.1954 6.9923 11.3326 6.95513 11.4577 6.89086C11.5828 6.82659 11.693 6.73665 11.7809 6.62692L15.7809 1.62692C15.947 1.41978 16.0239 1.15518 15.9948 0.891317C15.9658 0.627453 15.8331 0.385944 15.6259 0.219918C15.5234 0.137711 15.4056 0.0765093 15.2794 0.0398084C15.1532 0.0031075 15.021 -0.00837419 14.8903 0.00601889C14.6265 0.035087 14.385 0.167784 14.2189 0.374918L10.9169 4.49992L9.70693 3.28992C9.61389 3.19707 9.50347 3.12346 9.38199 3.07329C9.2605 3.02312 9.13031 2.99737 8.99887 2.99751C8.73342 2.99779 8.47894 3.10351 8.29143 3.29142C8.10393 3.47932 7.99874 3.73402 7.99902 3.99948C7.99931 4.26494 8.10503 4.51941 8.29293 4.70692L10.2929 6.70692C10.4804 6.89447 10.7347 6.99986 10.9999 6.99992Z" fill="#B2B2B0"/>
</g>
<defs>
<clipPath id="clip0">
<rect width="16" height="16" fill="white"/>
</clipPath>
</defs>
</svg>
