<svg width="12" height="12" viewBox="0 0 12 12" fill="none" xmlns="http://www.w3.org/2000/svg">
<g clip-path="url(#clip0)">
<path d="M6.35489 0.145917C6.30845 0.099354 6.25327 0.0624111 6.19253 0.0372047C6.13178 0.0119982 6.06666 -0.000976562 6.00089 -0.000976562C5.93513 -0.000976562 5.87001 0.0119982 5.80926 0.0372047C5.74852 0.0624111 5.69334 0.099354 5.64689 0.145917L2.64689 3.14592C2.57679 3.21585 2.52902 3.30502 2.50966 3.40213C2.49029 3.49923 2.50019 3.59991 2.53811 3.69138C2.57603 3.78285 2.64025 3.86101 2.72264 3.91594C2.80503 3.97087 2.90187 4.00009 3.00089 3.99992H9.00089C9.09992 4.00009 9.19676 3.97087 9.27915 3.91594C9.36154 3.86101 9.42576 3.78285 9.46368 3.69138C9.5016 3.59991 9.5115 3.49923 9.49213 3.40213C9.47277 3.30502 9.425 3.21585 9.35489 3.14592L6.35489 0.145917Z" fill="#B2B2B0"/>
<path d="M9.00089 8H3.00089C2.90187 7.99982 2.80503 8.02905 2.72264 8.08398C2.64025 8.13891 2.57603 8.21706 2.53811 8.30854C2.50019 8.40001 2.49029 8.50068 2.50966 8.59779C2.52902 8.6949 2.57679 8.78407 2.64689 8.854L5.64689 11.854C5.69334 11.9006 5.74852 11.9375 5.80926 11.9627C5.87001 11.9879 5.93513 12.0009 6.00089 12.0009C6.06666 12.0009 6.13178 11.9879 6.19253 11.9627C6.25327 11.9375 6.30845 11.9006 6.35489 11.854L9.35489 8.854C9.425 8.78407 9.47277 8.6949 9.49213 8.59779C9.5115 8.50068 9.5016 8.40001 9.46368 8.30854C9.42576 8.21706 9.36154 8.13891 9.27915 8.08398C9.19676 8.02905 9.09992 7.99982 9.00089 8Z" fill="#B2B2B0"/>
</g>
<defs>
<clipPath id="clip0">
<rect width="12" height="12" fill="white"/>
</clipPath>
</defs>
</svg>
