<svg width="12" height="12" viewBox="0 0 12 12" fill="none" xmlns="http://www.w3.org/2000/svg">
<g clip-path="url(#clip0)">
<path d="M9.73271 0.0581785C9.65212 0.0157008 9.56147 -0.00395582 9.47053 0.00133134C9.37959 0.00661849 9.29182 0.0366485 9.21671 0.0881785L1.21671 5.58818C1.14988 5.63413 1.09523 5.69564 1.05748 5.76742C1.01973 5.8392 1 5.91908 1 6.00018C1 6.08128 1.01973 6.16116 1.05748 6.23294C1.09523 6.30471 1.14988 6.36623 1.21671 6.41218L9.21671 11.9122C9.29998 11.9694 9.39865 12.0001 9.49971 12.0002C9.58097 12.0003 9.66101 11.9804 9.73271 11.9422C9.81322 11.8998 9.88063 11.8362 9.92768 11.7583C9.97473 11.6804 9.99963 11.5912 9.99971 11.5002V0.500178C9.99963 0.409182 9.97473 0.319931 9.92768 0.242043C9.88063 0.164154 9.81322 0.100583 9.73271 0.0581785Z" fill="#212121"/>
</g>
<defs>
<clipPath id="clip0">
<rect width="12" height="12" fill="white"/>
</clipPath>
</defs>
</svg>
