<svg width="12" height="12" viewBox="0 0 12 12" fill="none" xmlns="http://www.w3.org/2000/svg">
<g clip-path="url(#clip0)">
<path d="M2.783 0.0877976C2.70793 0.0362567 2.62021 0.00619594 2.5293 0.000859458C2.4384 -0.00447703 2.34776 0.0151134 2.26717 0.0575165C2.18659 0.0999196 2.11911 0.163525 2.07203 0.241469C2.02494 0.319413 2.00004 0.408736 2 0.499798V11.4998C2.00017 11.5909 2.02522 11.6802 2.07245 11.7581C2.11968 11.836 2.1873 11.8995 2.268 11.9418C2.33936 11.98 2.41906 11.9999 2.5 11.9998C2.60106 11.9997 2.69973 11.9691 2.783 11.9118L10.783 6.4118C10.8498 6.36585 10.9045 6.30433 10.9422 6.23256C10.98 6.16078 10.9997 6.0809 10.9997 5.9998C10.9997 5.9187 10.98 5.83882 10.9422 5.76704C10.9045 5.69526 10.8498 5.63375 10.783 5.5878L2.783 0.0877976Z" fill="#212121"/>
</g>
<defs>
<clipPath id="clip0">
<rect width="12" height="12" fill="white"/>
</clipPath>
</defs>
</svg>
