<svg width="16" height="16" viewBox="0 0 16 16" fill="none" xmlns="http://www.w3.org/2000/svg">
<path d="M14.8642 10.2158L12.3072 9.57682C12.2153 9.55379 12.1317 9.50508 12.0664 9.43638C12.0011 9.36768 11.9566 9.28183 11.9382 9.18882L11.7472 8.22582C12.2698 7.98701 12.7128 7.60316 13.0235 7.11992C13.3343 6.63668 13.4997 6.07436 13.5002 5.49982V4.12582C13.5123 3.33027 13.2165 2.56081 12.6746 1.97826C12.1327 1.3957 11.3866 1.04514 10.5922 0.999823C10.0719 0.984572 9.55652 1.10498 9.09681 1.34921C8.63709 1.59345 8.24884 1.9531 7.97021 2.39282C8.62935 3.15211 8.99475 4.12236 9.00022 5.12782C8.94073 5.98714 9.14444 6.84418 9.58421 7.58482C9.69143 7.75656 9.76277 7.94823 9.79393 8.14828C9.82509 8.34833 9.81544 8.55261 9.76554 8.74883C9.71565 8.94504 9.62655 9.12913 9.50361 9.28999C9.38067 9.45085 9.22644 9.58516 9.05022 9.68482L9.18722 9.72482C9.70907 9.87567 10.1679 10.1917 10.4948 10.6256C10.8217 11.0594 10.9991 11.5876 11.0002 12.1308V14.4998C10.9986 14.6705 10.9674 14.8397 10.9082 14.9998H15.5002C15.6328 14.9998 15.76 14.9471 15.8538 14.8534C15.9475 14.7596 16.0002 14.6324 16.0002 14.4998V11.6708C16.0002 11.3364 15.8884 11.0115 15.6825 10.7479C15.4767 10.4843 15.1887 10.297 14.8642 10.2158Z" fill="#B1AD9C"/>
<path d="M8.912 10.6889L6.755 10.0729C6.67639 10.0505 6.60447 10.0092 6.54554 9.9525C6.48661 9.89584 6.44248 9.8256 6.417 9.74792L6.247 9.22592C7.0346 9.27791 7.8232 9.14076 8.547 8.82592C8.60858 8.79401 8.66284 8.74964 8.70634 8.69562C8.74985 8.64161 8.78164 8.57914 8.79969 8.51217C8.81775 8.44521 8.82168 8.37523 8.81123 8.30666C8.80078 8.2381 8.77618 8.17246 8.739 8.11392C8.19967 7.21596 7.94223 6.17681 8 5.13092C8.01158 4.33951 7.71932 3.57378 7.18339 2.99134C6.64746 2.40891 5.90864 2.05409 5.119 1.99992C4.71514 1.98389 4.3122 2.04963 3.93437 2.1932C3.55655 2.33677 3.21163 2.5552 2.92033 2.83539C2.62902 3.11558 2.39734 3.45175 2.23919 3.8237C2.08104 4.19566 1.99968 4.59574 2 4.99992C2.07676 6.08891 1.82003 7.17545 1.264 8.11492C1.22702 8.17349 1.20262 8.2391 1.19233 8.3076C1.18204 8.3761 1.1861 8.44599 1.20425 8.51283C1.22239 8.57968 1.25423 8.64203 1.29774 8.69592C1.34125 8.74982 1.39548 8.79409 1.457 8.82592C2.1808 9.14076 2.96941 9.27791 3.757 9.22592L3.587 9.74792C3.56152 9.8256 3.51739 9.89584 3.45846 9.9525C3.39953 10.0092 3.32761 10.0505 3.249 10.0729L1.092 10.6889C0.777864 10.7777 0.501269 10.9666 0.304192 11.2268C0.107115 11.487 0.000314708 11.8045 0 12.1309L0 14.4999C0 14.6325 0.0526784 14.7597 0.146447 14.8535C0.240215 14.9472 0.367392 14.9999 0.5 14.9999H9.5C9.63261 14.9999 9.75979 14.9472 9.85355 14.8535C9.94732 14.7597 10 14.6325 10 14.4999V12.1309C9.99993 11.805 9.89371 11.488 9.6974 11.2278C9.5011 10.9676 9.22539 10.7784 8.912 10.6889Z" fill="#B1AD9C"/>
</svg>
