<svg width="217" height="39" viewBox="0 0 217 39" fill="none" xmlns="http://www.w3.org/2000/svg">
<g clip-path="url(#clip0)">
<path fill-rule="evenodd" clip-rule="evenodd" d="M126.228 5.79617L112.969 38.6411H110.531L126.228 0L141.89 38.6411H139.452L126.228 5.79617ZM73.6886 0H91.5881V2.30559H76.0758V36.3355H91.5881V38.6411H73.6886V0ZM40.2254 37.615C38.3105 38.2304 35.7788 38.5724 32.6303 38.6411H25.8552V0H32.6303C35.6701 0 38.1517 0.324872 40.0751 0.974615C42.5097 1.73956 44.7264 3.07461 46.5411 4.86878C50.5168 8.66134 52.5047 13.4958 52.5047 19.3721C52.5047 24.9765 50.5827 29.6907 46.7386 33.5147C44.9256 35.3813 42.6924 36.7872 40.2254 37.615ZM44.6992 6.50888C41.751 3.77252 37.7066 2.37142 32.5659 2.30559H28.2424V36.3355H32.5659C37.9041 36.3355 42.0974 34.7813 45.1457 31.6728C48.3944 28.3239 50.0531 24.2237 50.1218 19.3721C50.1218 14.2113 48.3143 9.92361 44.6992 6.50888ZM0 0H2.38716V38.6411H0V0Z" fill="#151408"/>
<path d="M145.227 7.08831V7.05826C145.22 6.503 145.324 5.95195 145.533 5.4374C145.742 4.92285 146.051 4.45514 146.443 4.06168C146.835 3.66823 147.301 3.35693 147.815 3.14603C148.329 2.93514 148.879 2.82888 149.434 2.8335C150.043 2.81043 150.65 2.92376 151.209 3.16519C151.768 3.40662 152.267 3.77004 152.667 4.22887L151.504 5.46539C151.252 5.153 150.933 4.90047 150.572 4.72599C150.21 4.55152 149.814 4.45945 149.413 4.45642C148.065 4.45642 147.069 5.61995 147.069 7.0325V7.06255C147.051 7.39245 147.101 7.72245 147.214 8.03267C147.328 8.34289 147.503 8.62692 147.73 8.86762C147.956 9.10832 148.228 9.30073 148.531 9.43323C148.834 9.56574 149.16 9.63561 149.49 9.63863C149.89 9.63117 150.283 9.53889 150.644 9.3679C151.006 9.19692 151.326 8.95114 151.585 8.64684L152.702 9.74597C152.306 10.2371 151.801 10.6296 151.227 10.8926C150.653 11.1556 150.027 11.2819 149.396 11.2616C148.846 11.2673 148.301 11.1633 147.793 10.9555C147.284 10.7478 146.822 10.4405 146.434 10.0518C146.045 9.66307 145.738 9.20069 145.531 8.69179C145.324 8.1829 145.221 7.63774 145.227 7.08831Z" fill="#151408"/>
<path d="M152.664 7.08846V7.0584C152.66 5.91572 153.11 4.81826 153.915 4.00744C154.721 3.19663 155.815 2.73887 156.958 2.73489C158.1 2.7309 159.198 3.18101 160.009 3.98619C160.819 4.79137 161.277 5.88567 161.281 7.02835V7.0584C161.279 7.62091 161.165 8.17733 160.945 8.69503C160.725 9.21272 160.403 9.68127 160 10.0732C159.596 10.4651 159.119 10.7725 158.595 10.9773C158.071 11.1821 157.511 11.2803 156.949 11.266C156.391 11.2803 155.837 11.1829 155.317 10.9793C154.798 10.7758 154.325 10.4704 153.925 10.081C153.526 9.69167 153.209 9.22628 152.992 8.71232C152.775 8.19835 152.664 7.64621 152.664 7.08846ZM159.426 7.08846V7.0584C159.441 6.72334 159.387 6.38881 159.27 6.07481C159.152 5.76081 158.972 5.47378 158.741 5.2309C158.509 4.98802 158.232 4.79426 157.924 4.66121C157.616 4.52817 157.284 4.45856 156.949 4.45657C155.463 4.45657 154.515 5.62009 154.515 7.03264V7.0627C154.503 7.39471 154.558 7.72567 154.677 8.03607C154.795 8.34647 154.974 8.63005 155.204 8.87011C155.434 9.11016 155.709 9.30184 156.014 9.43385C156.319 9.56586 156.647 9.63553 156.979 9.63877C157.31 9.64277 157.639 9.57873 157.944 9.45064C158.25 9.32254 158.526 9.1331 158.755 8.89404C158.985 8.65499 159.163 8.3714 159.278 8.06082C159.394 7.75025 159.444 7.4193 159.426 7.08846Z" fill="#151408"/>
<path d="M162.094 3.0052H163.944V4.22883C164.201 3.80428 164.562 3.4529 164.994 3.20851C165.425 2.96413 165.913 2.83496 166.409 2.83346C166.906 2.81196 167.399 2.93516 167.828 3.18814C168.257 3.44113 168.604 3.81305 168.826 4.25888C169.128 3.81488 169.534 3.45238 170.01 3.20368C170.486 2.95497 171.015 2.82779 171.552 2.83346C173.313 2.83346 174.382 3.94976 174.382 5.92475V11.0769H172.531V6.49148C172.531 5.20345 171.934 4.51649 170.895 4.51649C169.856 4.51649 169.178 5.22062 169.178 6.52154V11.0855H167.323V6.4786C167.323 5.22062 166.714 4.51649 165.687 4.51649C164.661 4.51649 163.97 5.28502 163.97 6.52154V11.0855H162.12L162.094 3.0052Z" fill="#151408"/>
<path d="M175.562 3.00538H177.413V4.22902C177.672 3.80283 178.036 3.45055 178.471 3.20614C178.906 2.96174 179.396 2.83344 179.895 2.83364C180.393 2.8113 180.887 2.93409 181.317 3.18713C181.747 3.44016 182.094 3.81255 182.316 4.25907C182.617 3.81486 183.022 3.45211 183.498 3.20334C183.973 2.95457 184.502 2.82754 185.038 2.83364C186.798 2.83364 187.872 3.94994 187.872 5.92493V11.0771H186.017V6.49167C186.017 5.20363 185.42 4.51668 184.381 4.51668C183.342 4.51668 182.664 5.2208 182.664 6.52172V11.0857H180.813V6.47879C180.813 5.22081 180.199 4.51668 179.173 4.51668C178.147 4.51668 177.456 5.28521 177.456 6.52172V11.0857H175.605L175.562 3.00538Z" fill="#151408"/>
<path d="M188.589 7.07543V7.04109C188.589 4.7312 190.229 2.8335 192.539 2.8335C195.115 2.8335 196.403 4.85571 196.403 7.18277C196.403 7.35021 196.403 7.51766 196.373 7.70228H190.44C190.493 8.27764 190.765 8.81065 191.199 9.19161C191.634 9.57257 192.198 9.7725 192.775 9.75026C193.187 9.7528 193.595 9.66847 193.973 9.50276C194.35 9.33705 194.688 9.09368 194.965 8.78852L196.051 9.75026C195.655 10.2412 195.15 10.6335 194.576 10.8965C194.003 11.1594 193.376 11.2859 192.745 11.2658C192.192 11.2834 191.641 11.1867 191.126 10.9819C190.612 10.7771 190.145 10.4685 189.755 10.0753C189.365 9.68215 189.06 9.21288 188.86 8.69676C188.659 8.18063 188.567 7.62872 188.589 7.07543ZM194.574 6.47864C194.45 5.28506 193.746 4.33191 192.522 4.33191C191.388 4.33191 190.594 5.1906 190.427 6.47864H194.574Z" fill="#151408"/>
<path d="M197.207 3.00534H199.062V4.83006C199.564 3.61931 200.5 2.79067 201.921 2.85507V4.80859H201.814C200.191 4.80859 199.062 5.86478 199.062 8.00722V11.0856H197.207V3.00534Z" fill="#151408"/>
<path d="M201.739 7.08838V7.05833C201.732 6.5027 201.836 5.9513 202.045 5.43646C202.254 4.92162 202.564 4.45372 202.956 4.0602C203.348 3.66669 203.815 3.35548 204.33 3.14484C204.844 2.93421 205.395 2.82838 205.95 2.83356C206.559 2.81022 207.164 2.92345 207.723 3.16491C208.282 3.40638 208.779 3.76996 209.179 4.22894L208.016 5.46545C207.764 5.15418 207.447 4.90232 207.087 4.72789C206.727 4.55346 206.333 4.46078 205.933 4.45649C204.589 4.45649 203.593 5.62002 203.593 7.03257V7.06262C203.575 7.3923 203.624 7.72221 203.737 8.03241C203.851 8.34262 204.025 8.62669 204.251 8.86746C204.477 9.10823 204.75 9.30071 205.052 9.43327C205.354 9.56582 205.68 9.63571 206.011 9.6387C206.41 9.63123 206.804 9.53895 207.165 9.36797C207.526 9.19699 207.847 8.95121 208.106 8.64691L209.226 9.74603C208.671 10.4098 207.926 10.8877 207.091 11.1155C206.256 11.3433 205.372 11.31 204.556 11.0201C203.741 10.7302 203.034 10.1977 202.53 9.49403C202.026 8.79038 201.75 7.94938 201.739 7.08409V7.08838Z" fill="#151408"/>
<path d="M209.175 7.07543V7.04109C209.175 4.7312 210.815 2.8335 213.125 2.8335C215.701 2.8335 216.989 4.85571 216.989 7.18277C216.989 7.35021 216.989 7.51766 216.959 7.70228H211.026C211.079 8.27611 211.35 8.80784 211.782 9.18858C212.215 9.56932 212.777 9.77026 213.353 9.75026C213.765 9.7528 214.173 9.66847 214.55 9.50276C214.927 9.33705 215.265 9.09368 215.542 8.78852L216.629 9.75026C216.232 10.2412 215.727 10.6335 215.154 10.8965C214.58 11.1594 213.953 11.2859 213.323 11.2658C212.77 11.2822 212.22 11.1846 211.706 10.9793C211.193 10.7739 210.727 10.4651 210.338 10.0721C209.949 9.67905 209.645 9.2102 209.445 8.69467C209.245 8.17915 209.153 7.62798 209.175 7.07543ZM215.16 6.47864C215.036 5.28506 214.332 4.33191 213.108 4.33191C211.974 4.33191 211.18 5.1906 211.013 6.47864H215.16Z" fill="#151408"/>
</g>
<defs>
<clipPath id="clip0">
<rect width="217" height="38.6411" fill="white"/>
</clipPath>
</defs>
</svg>
